<svg xmlns="http://www.w3.org/2000/svg" viewBox="0 0 256 208.05"><defs><style>.cls-1{fill:#39b54a;}</style></defs><g id="Layer_2" data-name="Layer 2"><g id="Layer_1-2" data-name="Layer 1"><path class="cls-1" d="M256,24.63a104.92,104.92,0,0,1-30.17,8.27,52.68,52.68,0,0,0,23.1-29.06,105.29,105.29,0,0,1-33.35,12.75,52.57,52.57,0,0,0-89.5,47.9A149.12,149.12,0,0,1,17.82,9.61,52.58,52.58,0,0,0,34.08,79.73a52.2,52.2,0,0,1-23.79-6.57c0,.22,0,.44,0,.67a52.55,52.55,0,0,0,42.13,51.49,52.34,52.34,0,0,1-23.72.9A52.58,52.58,0,0,0,77.76,162.7a105.37,105.37,0,0,1-65.23,22.48A108,108,0,0,1,0,184.45a148.67,148.67,0,0,0,80.51,23.6c96.61,0,149.43-80,149.43-149.44q0-3.42-.15-6.79A106.88,106.88,0,0,0,256,24.63"/></g></g></svg>